<svg id="Layer_1" data-name="Layer 1" xmlns="http://www.w3.org/2000/svg" viewBox="0 0 338.09 172.66"><defs><style>.cls-1{fill:#34b24e;}.cls-2{fill:#424242;}</style></defs><title>Artboard 1</title><path class="cls-1" d="M145.7,40.92,129.06,24.28a3.44,3.44,0,0,0-4.75,0L107.67,40.92a3.34,3.34,0,0,0,0,4.75,3.45,3.45,0,0,0,4.84,0l11-10.9v72.57h6.73V34.77L141,45.67a3.27,3.27,0,0,0,2.34,1,3.31,3.31,0,0,0,2.36-1A3.35,3.35,0,0,0,145.7,40.92Z"/><path class="cls-1" d="M123.49,75.11,112.51,86a3.47,3.47,0,0,1-4.84,0,3.36,3.36,0,0,1,0-4.76l16.64-16.64a3.46,3.46,0,0,1,4.75,0L145.7,81.26A3.35,3.35,0,0,1,143.37,87,3.3,3.3,0,0,1,141,86L130.22,75.11V54.94L141,65.84a3.27,3.27,0,0,0,2.34,1,3.31,3.31,0,0,0,2.36-1,3.35,3.35,0,0,0,0-4.75L129.06,44.45a3.46,3.46,0,0,0-4.75,0L107.67,61.09a3.34,3.34,0,0,0,0,4.75,3.45,3.45,0,0,0,4.84,0l11-10.9"/><path class="cls-2" d="M38.65,97.18,75.23,35.53H39V24.34H90.17v9.49L52.29,95.75H90.17v11.88H38.65Z"/><path class="cls-2" d="M162.37,66q0-14.55.83-19.47a23.6,23.6,0,0,1,2.71-8,28.36,28.36,0,0,1,9.4-10.24q6.36-4.56,15.87-4.67,9.63.12,16,4.69a27.66,27.66,0,0,1,9.18,10.28,19.37,19.37,0,0,1,2.82,7.94q.72,4.92.72,19.43,0,14.28-.72,19.3a19.47,19.47,0,0,1-2.82,8.06,26.8,26.8,0,0,1-9.18,10.17q-6.42,4.58-16,4.8-9.51-.22-15.87-4.8a27.41,27.41,0,0,1-9.4-10.17c-.59-1.26-1.13-2.46-1.61-3.6a23.77,23.77,0,0,1-1.1-4.46Q162.36,80.26,162.37,66Zm12.21,0q0,12.3.89,16.65a14.14,14.14,0,0,0,3.16,7,14.46,14.46,0,0,0,5.1,4.18,14,14,0,0,0,7.42,1.88,14.75,14.75,0,0,0,7.6-1.88,13.77,13.77,0,0,0,4.88-4.18,15.05,15.05,0,0,0,3.27-7q.82-4.35.83-16.65t-.83-16.78a15,15,0,0,0-3.27-6.93A14.9,14.9,0,0,0,198.75,38a17.27,17.27,0,0,0-7.6-1.77A16.35,16.35,0,0,0,183.73,38a15.65,15.65,0,0,0-5.1,4.29,14.08,14.08,0,0,0-3.16,6.93Q174.58,53.68,174.58,66Z"/><path class="cls-2" d="M238.79,24.34h11.52l36.53,59.21h.22V24.34h12.22v83.29H287.71L251.23,48.42H251v59.21H238.79Z"/><path class="cls-2" d="M38.77,119h4.37V144.5H57.2v4.24H38.77Z"/><path class="cls-2" d="M76.81,142.08H65.88l-2.22,6.66H59L69.52,119h3.65l10.49,29.77H79.05Zm-1.24-4-4.18-13h-.07l-4.18,13Z"/><path class="cls-2" d="M87.54,119h4.12l13.06,21.17h.08V119h4.36v29.77H105L92,127.58h-.08v21.16H87.54Z"/><path class="cls-2" d="M116.15,119h10.09a9.64,9.64,0,0,1,8.79,5,9.08,9.08,0,0,1,1.32,3.51,61.1,61.1,0,0,1,.22,6.36,43.53,43.53,0,0,1-.34,6.69,7.42,7.42,0,0,1-.47,1.72q-.34.73-.81,1.53a10.26,10.26,0,0,1-3.52,3.47,9.76,9.76,0,0,1-5.48,1.47h-9.8Zm4.37,25.53h5.23a5.86,5.86,0,0,0,5.34-2.6,5.11,5.11,0,0,0,.94-2.44c.11-1,.17-2.78.17-5.44s-.06-4.45-.17-5.57a5.27,5.27,0,0,0-1.13-2.72,5.76,5.76,0,0,0-5.15-2.52h-5.23Z"/><path class="cls-2" d="M142.85,141.53a12.46,12.46,0,0,0,8.2,3q5.63-.09,5.7-4.15c0-2.22-1.23-3.56-3.76-4l-3.82-.55a9.34,9.34,0,0,1-5.66-2.84,8.05,8.05,0,0,1-2-5.52,8.26,8.26,0,0,1,2.51-6.29,9.57,9.57,0,0,1,6.89-2.42,15.85,15.85,0,0,1,9.35,3.08l-2.43,3.71a13,13,0,0,0-7.15-2.3,5.29,5.29,0,0,0-3.36,1.05,3.93,3.93,0,0,0-1.45,3.23,3.39,3.39,0,0,0,1,2.33,5.53,5.53,0,0,0,3.11,1.47c.79.13,1.87.29,3.24.47a8.9,8.9,0,0,1,6,3,8.64,8.64,0,0,1,1.92,5.56q-.23,8.55-10.12,8.67a16.08,16.08,0,0,1-11-4.07Z"/><path class="cls-2" d="M185.94,140.42a11.27,11.27,0,0,1-3.62,6.37,10.13,10.13,0,0,1-6.51,2.2,10.39,10.39,0,0,1-9-5.35c-.21-.45-.41-.88-.58-1.29a8,8,0,0,1-.39-1.59,50.85,50.85,0,0,1-.3-6.9,50.83,50.83,0,0,1,.3-7,8.35,8.35,0,0,1,1-2.84,10.17,10.17,0,0,1,3.36-3.67,9.72,9.72,0,0,1,5.68-1.68,9.61,9.61,0,0,1,6.8,2.55,11.27,11.27,0,0,1,3.32,6.26h-4.63a6.7,6.7,0,0,0-1.94-3.07,5.67,5.67,0,0,0-3.57-1.25,5.86,5.86,0,0,0-2.65.64,5.65,5.65,0,0,0-1.83,1.53,5.13,5.13,0,0,0-1.13,2.48,37.16,37.16,0,0,0-.31,6,34.86,34.86,0,0,0,.32,5.95,5.05,5.05,0,0,0,1.12,2.52,5.29,5.29,0,0,0,1.83,1.49,5,5,0,0,0,2.65.68q3.69,0,5.51-4.08Z"/><path class="cls-2" d="M204.53,142.08H193.59l-2.21,6.66h-4.63L197.23,119h3.66l10.48,29.77h-4.6Zm-1.25-4-4.17-13H199l-4.17,13Z"/><path class="cls-2" d="M215.26,119h10.45a16.84,16.84,0,0,1,3.29.32,8.86,8.86,0,0,1,3.21,1.76,7.15,7.15,0,0,1,2.21,2.86,9.51,9.51,0,0,1,.89,4.25,9.18,9.18,0,0,1-2.26,6,8.38,8.38,0,0,1-6.77,2.94h-6.65v11.62h-4.37Zm4.37,13.91h6.48a4.55,4.55,0,0,0,3.66-1.56,5.17,5.17,0,0,0,1.17-3.28,6.14,6.14,0,0,0-.47-2.53,3.82,3.82,0,0,0-1.39-1.46,5.47,5.47,0,0,0-3.13-.84h-6.32Z"/><path class="cls-2" d="M240.05,119h4.37v29.77h-4.37Z"/><path class="cls-2" d="M250.83,119H255L268,140.14h.08V119h4.37v29.77h-4.14l-13-21.16h-.08v21.16h-4.37Z"/><path class="cls-2" d="M288.79,132.37h10.26v6a10.76,10.76,0,0,1-3,7.49,10.07,10.07,0,0,1-7.32,3.08,10.39,10.39,0,0,1-9-5.35q-.32-.67-.57-1.29a8.72,8.72,0,0,1-.4-1.59,50.85,50.85,0,0,1-.3-6.9,50.83,50.83,0,0,1,.3-7,8.35,8.35,0,0,1,1-2.84,10.17,10.17,0,0,1,3.36-3.67,10.39,10.39,0,0,1,12.48.87,11.36,11.36,0,0,1,3.32,6.27h-4.64a6.49,6.49,0,0,0-1.94-3.07,5.57,5.57,0,0,0-3.56-1.26,5.86,5.86,0,0,0-2.65.64,5.5,5.5,0,0,0-1.82,1.53,5,5,0,0,0-1.13,2.48,36.8,36.8,0,0,0-.32,6,36,36,0,0,0,.32,5.95,5,5,0,0,0,1.13,2.52,5.16,5.16,0,0,0,1.82,1.49,5,5,0,0,0,2.65.68,5.46,5.46,0,0,0,4.22-1.81,6.36,6.36,0,0,0,1.71-4.52v-1.56h-5.89Z"/></svg>